<svg xmlns="http://www.w3.org/2000/svg" xmlns:xlink="http://www.w3.org/1999/xlink" width="548" height="276"
    viewBox="0 0 548 276">
    <defs>
        <rect id="code-example-b" width="540" height="268" rx="6"></rect>
        <filter id="code-example-a" width="102.6%" height="105.2%" x="-1.3%" y="-1.9%" filterUnits="objectBoundingBox">
            <feOffset dy="2" in="SourceAlpha" result="shadowOffsetOuter1"></feOffset>
            <feGaussianBlur in="shadowOffsetOuter1" result="shadowBlurOuter1" stdDeviation="2"></feGaussianBlur>
            <feColorMatrix in="shadowBlurOuter1"
                values="0 0 0 0 0.0549019608 0 0 0 0 0.117647059 0 0 0 0 0.145098039 0 0 0 0.16 0"></feColorMatrix>
        </filter>
    </defs>
    <g fill="none" transform="translate(4 2)">
        <use fill="#000" filter="url(#code-example-a)" xlink:href="#code-example-b"></use>
        <use fill="#0E1E25" xlink:href="#code-example-b"></use>
        <rect width="62" height="21" x="191" y="18" fill="#F4BB00" rx="6"></rect>
        <path fill="#6D7D7D" d="M22.817 26.601l-4.272 2.279v.108l4.272 2.273v1.421l-5.592-3.199v-1.098l5.592-3.199z">
        </path>
        <path fill="#01C6B6"
            d="M27.388 33v-5.834h-1.854V26.12h1.854v-.647c0-1.397.8-2.013 2.551-2.013.33 0 1.486.026 1.676.057v.984a33.23 33.23 0 0 0-1.65-.05c-.87 0-1.327.336-1.327.977v.692h2.977v1.047h-2.958V33h-1.27zm9.502.133c-1.866 0-3.053-1.193-3.053-3.066V29.02c0-1.879 1.187-3.066 3.053-3.066 1.866 0 3.053 1.187 3.053 3.066v1.047c0 1.873-1.187 3.066-3.053 3.066zm0-6.1c-1.104 0-1.796.794-1.796 2.076v.87c0 1.282.692 2.075 1.796 2.075 1.105 0 1.797-.793 1.797-2.076v-.87c0-1.281-.692-2.075-1.797-2.075zm8.202.813h.177c.273-1.302 1.08-1.943 2.406-1.943.394 0 .768.051.997.146v1.397a3.62 3.62 0 0 0-1.143-.197c-1.562 0-2.431.971-2.431 2.666v2.107h2.1V33H42.49v-.978h1.371v-4.964h-1.504v-.977h2.736v1.765zm12.054-.02V33h-1.117v-4.78c0-.743-.292-1.143-.813-1.143-.546 0-.889.47-.889 1.232v4.69h-1.11v-4.785c0-.743-.286-1.137-.813-1.137-.558 0-.908.47-.908 1.232v4.69H50.38v-6.918h1.124v1.003h.14c.164-.717.653-1.136 1.313-1.136.648 0 1.098.406 1.244 1.11h.14c.165-.685.698-1.11 1.384-1.11.933 0 1.422.653 1.422 1.879z">
        </path>
        <path fill="#F4BB00"
            d="M67.728 33v-6.92h1.231v1.207h.089c.362-.857 1.142-1.34 2.177-1.34 1.504 0 2.317.902 2.317 2.565V33h-1.276v-4.17c0-1.188-.476-1.746-1.498-1.746-1.06 0-1.77.743-1.77 1.86V33h-1.27zm10.575.114c-1.32 0-2.196-.831-2.196-2.082 0-1.231.888-1.955 2.5-2.05l1.816-.095v-.61c0-.793-.495-1.238-1.384-1.238-.736 0-1.263.318-1.428.864h-1.244c.127-1.143 1.212-1.917 2.698-1.917 1.669 0 2.621.838 2.621 2.291v4.73h-1.212v-1.01h-.12c-.331.71-1.074 1.117-2.051 1.117zm.393-1.06c.99 0 1.727-.654 1.727-1.536v-.73l-1.644.082c-.92.051-1.403.432-1.403 1.105 0 .666.508 1.08 1.32 1.08zm12.194-4.227V33h-1.117v-4.78c0-.743-.292-1.143-.812-1.143-.546 0-.889.47-.889 1.232v4.69h-1.11v-4.785c0-.743-.287-1.137-.813-1.137-.559 0-.908.47-.908 1.232v4.69h-1.117v-6.918h1.123v1.003h.14c.165-.717.654-1.136 1.314-1.136.647 0 1.098.406 1.244 1.11h.14c.165-.685.698-1.11 1.383-1.11.934 0 1.422.653 1.422 1.879zm5.13-.838c-1.073 0-1.72.736-1.72 1.974h3.389c0-1.232-.622-1.974-1.67-1.974zm1.681 4.183h1.22c-.185 1.161-1.327 1.961-2.82 1.961-1.942 0-3.052-1.142-3.052-3.11v-1.054c0-1.822 1.187-3.021 2.983-3.021 1.81 0 2.907 1.193 2.907 3.16v.75H94.3v.31c0 1.169.705 1.918 1.797 1.918.818 0 1.434-.35 1.605-.914z">
        </path>
        <path fill="#6D7D7D"
            d="M107.737 31.051h-6.716v-1.238h6.716v1.238zm0-2.99h-6.716v-1.237h6.716v1.237zm4.418-.171h-1.301v-4.05h1.301v4.05zm2.635 0h-1.308v-4.05h1.308v4.05z">
        </path>
        <path fill="#FB6E78"
            d="M124.21 28.309h-1.257c-.12-.8-.743-1.276-1.587-1.276-1.124 0-1.746.787-1.746 2.209v.584c0 1.422.622 2.209 1.746 2.209.85 0 1.46-.463 1.587-1.244h1.257c-.172 1.473-1.22 2.342-2.831 2.342-1.924 0-3.035-1.155-3.035-3.174v-.85c0-2.019 1.111-3.168 3.035-3.168 1.612 0 2.66.87 2.83 2.368zm5.478 4.824c-1.867 0-3.054-1.193-3.054-3.066V29.02c0-1.879 1.187-3.066 3.054-3.066 1.866 0 3.053 1.187 3.053 3.066v1.047c0 1.873-1.187 3.066-3.053 3.066zm0-6.1c-1.105 0-1.797.794-1.797 2.076v.87c0 1.282.692 2.075 1.797 2.075 1.104 0 1.796-.793 1.796-2.076v-.87c0-1.281-.692-2.075-1.796-2.075zM135.217 33v-6.92h1.231v1.207h.089c.362-.857 1.142-1.34 2.177-1.34 1.505 0 2.317.902 2.317 2.565V33h-1.276v-4.17c0-1.188-.476-1.746-1.498-1.746-1.06 0-1.77.743-1.77 1.86V33h-1.27zm10.086-8.81h1.257v1.929h2.736v1.047h-2.717v3.74c0 .685.476 1.06 1.358 1.06.324 0 1.168-.014 1.32-.033v1.041c-.139.026-1.142.051-1.408.051-1.771 0-2.546-.635-2.546-2.12v-3.739h-1.828V26.12h1.828v-1.93zm8.925 8.924c-1.32 0-2.196-.831-2.196-2.082 0-1.231.888-1.955 2.5-2.05l1.816-.095v-.61c0-.793-.495-1.238-1.384-1.238-.736 0-1.263.318-1.428.864h-1.244c.127-1.143 1.212-1.917 2.698-1.917 1.67 0 2.621.838 2.621 2.291v4.73H156.4v-1.01h-.12c-.33.71-1.073 1.117-2.051 1.117zm.394-1.06c.99 0 1.726-.654 1.726-1.536v-.73l-1.644.082c-.92.051-1.403.432-1.403 1.105 0 .666.508 1.08 1.32 1.08zm11.768-3.745h-1.257c-.12-.8-.742-1.276-1.587-1.276-1.123 0-1.745.787-1.745 2.209v.584c0 1.422.622 2.209 1.745 2.209.851 0 1.46-.463 1.587-1.244h1.257c-.171 1.473-1.219 2.342-2.83 2.342-1.924 0-3.035-1.155-3.035-3.174v-.85c0-2.019 1.11-3.168 3.034-3.168 1.612 0 2.66.87 2.831 2.368zm4.222-4.12h1.256v1.93h2.736v1.047h-2.717v3.74c0 .685.476 1.06 1.359 1.06.324 0 1.168-.014 1.32-.033v1.041c-.14.026-1.142.051-1.41.051-1.77 0-2.544-.635-2.544-2.12v-3.739h-1.829V26.12h1.829v-1.93z">
        </path>
        <path fill="#6D7D7D" d="M179.644 27.89h-1.3v-4.05h1.3v4.05zm2.635 0h-1.308v-4.05h1.308v4.05z"></path>
        <path fill="#081E26"
            d="M194.27 33v-6.92h1.231v1.207h.089c.362-.857 1.142-1.34 2.177-1.34 1.504 0 2.317.902 2.317 2.565V33h-1.276v-4.17c0-1.188-.476-1.746-1.498-1.746-1.06 0-1.77.743-1.77 1.86V33h-1.27zm11.42-6.011c-1.074 0-1.721.736-1.721 1.974h3.39c0-1.232-.623-1.974-1.67-1.974zm1.681 4.183h1.219c-.184 1.161-1.327 1.961-2.818 1.961-1.943 0-3.054-1.142-3.054-3.11v-1.054c0-1.822 1.187-3.021 2.984-3.021 1.809 0 2.907 1.193 2.907 3.16v.75h-4.64v.31c0 1.169.704 1.918 1.796 1.918.82 0 1.435-.35 1.606-.914zm5.421-6.983h1.257v1.93h2.736v1.047h-2.717v3.74c0 .685.476 1.06 1.358 1.06.324 0 1.168-.014 1.32-.033v1.041c-.139.026-1.142.051-1.408.051-1.771 0-2.546-.635-2.546-2.12v-3.739h-1.828V26.12h1.828v-1.93zM225.52 33h-5.808v-1.027h2.317v-7.554h-2.266v-1.035h3.536v8.589h2.221V33zm5.517-8.537c-.565 0-.984-.393-.984-.94 0-.551.419-.945.984-.945.57 0 .983.394.983.946 0 .546-.412.94-.983.94zm2.92 8.538h-5.809v-1.028h2.33v-4.863h-2.279v-1.028h3.523v5.89h2.234V33zm4.335 0v-5.834h-1.853V26.12h1.853v-.647c0-1.397.8-2.013 2.552-2.013.33 0 1.485.026 1.676.057v.984a33.23 33.23 0 0 0-1.65-.05c-.87 0-1.327.336-1.327.977v.692h2.977v1.047h-2.958V33h-1.27zm7.528 2.475c-.196 0-.438-.012-.52-.019v-1.072c.07.012.28.019.38.019.667 0 1.03-.28 1.283-1.01l.108-.342-2.52-6.97h1.396l1.822 5.662h.089l1.81-5.662h1.351l-2.539 7.128c-.603 1.72-1.25 2.266-2.66 2.266z">
        </path>
        <path fill="#6D7D7D"
            d="M257.702 28.88l-4.265-2.279v-1.415l5.592 3.2v1.097l-5.592 3.2V31.26l4.265-2.273v-.108zM39.69 47.801l-4.272 2.28v.107l4.272 2.273v1.421l-5.593-3.199v-1.098l5.593-3.2v1.416z">
        </path>
        <path fill="#01C6B6"
            d="M45.866 47.173c1.593 0 2.609 1.136 2.609 2.939v1.263c0 1.803-1.016 2.94-2.61 2.94-1.002 0-1.726-.439-2.005-1.213h-.12v3.421h-1.308v-9.242h1.276v1.098h.12c.324-.787 1.035-1.206 2.038-1.206zm-.425 1.13c-1.06 0-1.733.749-1.733 1.936v1.035c0 1.193.673 1.942 1.733 1.942 1.066 0 1.745-.755 1.745-1.942v-1.035c0-1.187-.679-1.936-1.745-1.936z">
        </path>
        <path fill="#6D7D7D"
            d="M55.235 50.08l-4.265-2.279v-1.415l5.592 3.2v1.097l-5.592 3.2V52.46l4.265-2.273v-.108zm1.327 18.921l-4.272 2.28v.107l4.272 2.273v1.421l-5.592-3.199v-1.098l5.592-3.2v1.416z">
        </path>
        <path fill="#01C6B6"
            d="M65.233 75.4h-5.808v-1.028h2.317v-7.554h-2.267v-1.035h3.536v8.589h2.222V75.4zm4.634.114c-1.32 0-2.197-.831-2.197-2.082 0-1.231.89-1.955 2.501-2.05l1.816-.095v-.61c0-.793-.495-1.238-1.384-1.238-.736 0-1.263.318-1.428.864H67.93c.127-1.143 1.212-1.917 2.697-1.917 1.67 0 2.622.838 2.622 2.291v4.73h-1.212v-1.01h-.121c-.33.71-1.073 1.117-2.05 1.117zm.393-1.06c.99 0 1.727-.654 1.727-1.536v-.73l-1.644.082c-.92.051-1.403.432-1.403 1.105 0 .666.508 1.08 1.32 1.08zm9.344 1.06c-.996 0-1.707-.425-2.031-1.206h-.12V75.4H76.17v-9.617h1.308v3.796h.127c.279-.774 1.003-1.212 2-1.212 1.592 0 2.608 1.136 2.608 2.945v1.257c0 1.809-1.016 2.945-2.609 2.945zm-.419-1.13c1.067 0 1.74-.749 1.74-1.936v-1.034c0-1.187-.673-1.943-1.74-1.943-1.06 0-1.74.75-1.74 1.943v1.034c0 1.187.68 1.936 1.74 1.936zm8.398-4.995c-1.073 0-1.72.736-1.72 1.974h3.39c0-1.232-.622-1.974-1.67-1.974zm1.682 4.183h1.22c-.185 1.161-1.328 1.961-2.82 1.961-1.942 0-3.052-1.142-3.052-3.11v-1.054c0-1.822 1.187-3.021 2.983-3.021 1.809 0 2.907 1.193 2.907 3.16v.75h-4.64v.31c0 1.169.705 1.918 1.796 1.918.82 0 1.435-.35 1.606-.914zm9.712 1.828H93.17v-1.028h2.317v-7.554H93.22v-1.035h3.536v8.589h2.221V75.4z">
        </path>
        <path fill="#6D7D7D" d="M105.852 71.28l-4.266-2.279v-1.415l5.593 3.199v1.098l-5.593 3.199v-1.421l4.266-2.273z">
        </path>
        <path fill="#FFF"
            d="M110.892 75.4h-1.174v-9.16h1.231l3.695 6.85h.095v-6.85h1.174v9.16h-1.219l-3.707-6.868h-.095V75.4zm9.591.114c-1.32 0-2.196-.831-2.196-2.082 0-1.231.889-1.955 2.501-2.05l1.816-.095v-.61c0-.793-.496-1.238-1.384-1.238-.737 0-1.263.318-1.428.864h-1.245c.127-1.143 1.213-1.917 2.698-1.917 1.67 0 2.622.838 2.622 2.291v4.73h-1.213v-1.01h-.12c-.33.71-1.073 1.117-2.05 1.117zm.394-1.06c.99 0 1.727-.654 1.727-1.536v-.73l-1.644.082c-.92.051-1.403.432-1.403 1.105 0 .666.508 1.08 1.32 1.08zm12.194-4.227V75.4h-1.117v-4.78c0-.743-.292-1.143-.813-1.143-.546 0-.888.47-.888 1.232v4.69h-1.111v-4.785c0-.743-.286-1.137-.813-1.137-.558 0-.907.47-.907 1.232v4.69h-1.118v-6.918h1.124v1.003h.14c.165-.717.653-1.136 1.314-1.136.647 0 1.098.406 1.244 1.11h.14c.164-.685.698-1.11 1.383-1.11.933 0 1.422.653 1.422 1.879zm5.129-.838c-1.073 0-1.72.736-1.72 1.974h3.39c0-1.232-.623-1.974-1.67-1.974zm1.682 4.183h1.219c-.184 1.161-1.327 1.961-2.818 1.961-1.943 0-3.054-1.142-3.054-3.11v-1.054c0-1.822 1.187-3.021 2.984-3.021 1.809 0 2.907 1.193 2.907 3.16v.75h-4.64v.31c0 1.169.704 1.918 1.796 1.918.819 0 1.435-.35 1.606-.914z">
        </path>
        <path fill="#6D7D7D" d="M157.795 69.001l-4.272 2.279v.108l4.272 2.273v1.421l-5.592-3.199v-1.098l5.592-3.199z">
        </path>
        <path fill="#01C6B6"
            d="M163.546 66.862c-.564 0-.983-.393-.983-.94 0-.551.419-.945.983-.945.572 0 .984.394.984.946 0 .546-.412.94-.984.94zm2.92 8.538h-5.808v-1.028h2.33v-4.863h-2.279v-1.028h3.523v5.89h2.234V75.4zm2.495 0v-6.92h1.232v1.207h.088c.362-.857 1.143-1.34 2.178-1.34 1.504 0 2.317.902 2.317 2.565V75.4H173.5v-4.17c0-1.188-.476-1.746-1.498-1.746-1.06 0-1.771.743-1.771 1.86V75.4h-1.27zm11.883-7.027c1.593 0 2.609 1.136 2.609 2.939v1.263c0 1.803-1.016 2.94-2.609 2.94-1.003 0-1.727-.439-2.006-1.213h-.12v3.421h-1.308v-9.242h1.276v1.098h.12c.324-.787 1.035-1.206 2.038-1.206zm-.425 1.13c-1.06 0-1.733.749-1.733 1.936v1.035c0 1.193.673 1.942 1.733 1.942 1.066 0 1.745-.755 1.745-1.942v-1.035c0-1.187-.679-1.936-1.745-1.936zm11.229-1.022V75.4h-1.232v-1.2h-.088c-.362.85-1.143 1.333-2.178 1.333-1.504 0-2.317-.901-2.317-2.564V68.48h1.276v4.177c0 1.18.476 1.739 1.498 1.739 1.06 0 1.771-.743 1.771-1.86v-4.056h1.27zm4.272-1.892h1.257v1.93h2.736v1.047h-2.717v3.74c0 .685.476 1.06 1.358 1.06.324 0 1.168-.014 1.32-.033v1.041c-.14.026-1.142.051-1.409.051-1.77 0-2.545-.635-2.545-2.12v-3.739h-1.828V68.52h1.828v-1.93z">
        </path>
        <path fill="#F4BB00"
            d="M212.792 66.59h1.257v1.929h2.736v1.047h-2.717v3.74c0 .685.476 1.06 1.358 1.06.324 0 1.168-.014 1.32-.033v1.041c-.139.026-1.142.051-1.408.051-1.771 0-2.546-.635-2.546-2.12v-3.739h-1.828V68.52h1.828v-1.93zm7.719 11.285c-.197 0-.438-.012-.52-.019v-1.072c.07.012.279.019.38.019.667 0 1.029-.28 1.283-1.01l.108-.342-2.52-6.97h1.396l1.822 5.662h.089l1.809-5.662h1.352l-2.54 7.128c-.602 1.72-1.25 2.266-2.659 2.266zm10.95-9.502c1.593 0 2.609 1.136 2.609 2.939v1.263c0 1.803-1.016 2.94-2.61 2.94-1.002 0-1.726-.439-2.005-1.213h-.12v3.421h-1.308v-9.242h1.276v1.098h.12c.324-.787 1.035-1.206 2.038-1.206zm-.425 1.13c-1.06 0-1.733.749-1.733 1.936v1.035c0 1.193.672 1.942 1.733 1.942 1.066 0 1.745-.755 1.745-1.942v-1.035c0-1.187-.679-1.936-1.745-1.936zm8.398-.114c-1.073 0-1.72.736-1.72 1.974h3.389c0-1.232-.622-1.974-1.67-1.974zm1.682 4.183h1.218c-.184 1.161-1.326 1.961-2.818 1.961-1.942 0-3.053-1.142-3.053-3.11v-1.054c0-1.822 1.187-3.021 2.983-3.021 1.81 0 2.908 1.193 2.908 3.16v.75h-4.64v.31c0 1.169.704 1.918 1.796 1.918.819 0 1.434-.35 1.606-.914z">
        </path>
        <path fill="#6D7D7D"
            d="M251.151 73.451h-6.715v-1.238h6.715v1.238zm0-2.99h-6.715v-1.237h6.715v1.237zm4.419-.171h-1.302v-4.05h1.302v4.05zm2.634 0h-1.308v-4.05h1.308v4.05z">
        </path>
        <path fill="#FB6E78"
            d="M263.409 66.59h1.257v1.929h2.736v1.047h-2.717v3.74c0 .685.476 1.06 1.358 1.06.324 0 1.168-.014 1.32-.033v1.041c-.14.026-1.142.051-1.409.051-1.77 0-2.545-.635-2.545-2.12v-3.739h-1.828V68.52h1.828v-1.93zm9.77 2.799c-1.074 0-1.721.736-1.721 1.974h3.39c0-1.232-.623-1.974-1.67-1.974zm1.681 4.183h1.219c-.184 1.161-1.327 1.961-2.818 1.961-1.943 0-3.054-1.142-3.054-3.11v-1.054c0-1.822 1.187-3.021 2.984-3.021 1.809 0 2.907 1.193 2.907 3.16v.75h-4.64v.31c0 1.169.704 1.918 1.796 1.918.82 0 1.435-.35 1.606-.914zm6.703-.743h-.088l-1.638 2.57h-1.39l2.323-3.452-2.336-3.466h1.485l1.606 2.545h.09l1.593-2.545h1.421l-2.317 3.415 2.336 3.504h-1.453l-1.632-2.57zm7.154-6.24h1.257v1.93h2.736v1.047h-2.717v3.74c0 .685.476 1.06 1.359 1.06.323 0 1.168-.014 1.32-.033v1.041c-.14.026-1.143.051-1.41.051-1.77 0-2.545-.635-2.545-2.12v-3.739h-1.828V68.52h1.828v-1.93z">
        </path>
        <path fill="#6D7D7D" d="M297.75 70.29h-1.301v-4.05h1.301v4.05zm2.634 0h-1.307v-4.05h1.307v4.05z"></path>
        <path fill="#F4BB00"
            d="M312.375 75.4v-6.92h1.232v1.207h.089c.362-.857 1.142-1.34 2.177-1.34 1.504 0 2.317.902 2.317 2.565V75.4h-1.276v-4.17c0-1.188-.476-1.746-1.498-1.746-1.06 0-1.771.743-1.771 1.86V75.4h-1.27zm10.576.114c-1.32 0-2.197-.831-2.197-2.082 0-1.231.89-1.955 2.501-2.05l1.816-.095v-.61c0-.793-.495-1.238-1.384-1.238-.736 0-1.263.318-1.428.864h-1.244c.127-1.143 1.212-1.917 2.697-1.917 1.67 0 2.622.838 2.622 2.291v4.73h-1.212v-1.01H325c-.33.71-1.073 1.117-2.05 1.117zm.393-1.06c.99 0 1.727-.654 1.727-1.536v-.73l-1.644.082c-.92.051-1.403.432-1.403 1.105 0 .666.508 1.08 1.32 1.08zm12.194-4.227V75.4h-1.117v-4.78c0-.743-.292-1.143-.813-1.143-.545 0-.888.47-.888 1.232v4.69h-1.111v-4.785c0-.743-.286-1.137-.813-1.137-.558 0-.907.47-.907 1.232v4.69h-1.117v-6.918h1.123v1.003h.14c.165-.717.654-1.136 1.314-1.136.647 0 1.098.406 1.244 1.11h.14c.165-.685.698-1.11 1.383-1.11.933 0 1.422.653 1.422 1.879zm5.13-.838c-1.074 0-1.721.736-1.721 1.974h3.39c0-1.232-.622-1.974-1.67-1.974zm1.681 4.183h1.22c-.185 1.161-1.328 1.961-2.82 1.961-1.942 0-3.053-1.142-3.053-3.11v-1.054c0-1.822 1.187-3.021 2.984-3.021 1.809 0 2.907 1.193 2.907 3.16v.75h-4.64v.31c0 1.169.705 1.918 1.796 1.918.82 0 1.435-.35 1.606-.914z">
        </path>
        <path fill="#6D7D7D"
            d="M352.385 73.451h-6.716v-1.238h6.716v1.238zm0-2.99h-6.716v-1.237h6.716v1.237zm4.418-.171h-1.301v-4.05h1.301v4.05zm2.634 0h-1.307v-4.05h1.307v4.05z">
        </path>
        <path fill="#FB6E78"
            d="M362.992 75.4v-6.92h1.232v1.207h.089c.361-.857 1.142-1.34 2.177-1.34 1.504 0 2.317.902 2.317 2.565V75.4h-1.276v-4.17c0-1.188-.476-1.746-1.498-1.746-1.06 0-1.771.743-1.771 1.86V75.4h-1.27zm10.575.114c-1.32 0-2.196-.831-2.196-2.082 0-1.231.889-1.955 2.501-2.05l1.816-.095v-.61c0-.793-.496-1.238-1.384-1.238-.737 0-1.263.318-1.428.864h-1.245c.127-1.143 1.213-1.917 2.698-1.917 1.67 0 2.622.838 2.622 2.291v4.73h-1.213v-1.01h-.12c-.33.71-1.073 1.117-2.05 1.117zm.394-1.06c.99 0 1.727-.654 1.727-1.536v-.73l-1.644.082c-.92.051-1.403.432-1.403 1.105 0 .666.508 1.08 1.32 1.08zm12.194-4.227V75.4h-1.117v-4.78c0-.743-.292-1.143-.813-1.143-.546 0-.888.47-.888 1.232v4.69h-1.111v-4.785c0-.743-.286-1.137-.813-1.137-.558 0-.907.47-.907 1.232v4.69h-1.118v-6.918h1.124v1.003h.14c.165-.717.653-1.136 1.314-1.136.647 0 1.098.406 1.244 1.11h.14c.164-.685.698-1.11 1.383-1.11.933 0 1.422.653 1.422 1.879zm5.129-.838c-1.073 0-1.72.736-1.72 1.974h3.39c0-1.232-.623-1.974-1.67-1.974zm1.682 4.183h1.219c-.184 1.161-1.327 1.961-2.818 1.961-1.943 0-3.054-1.142-3.054-3.11v-1.054c0-1.822 1.187-3.021 2.984-3.021 1.809 0 2.907 1.193 2.907 3.16v.75h-4.64v.31c0 1.169.704 1.918 1.796 1.918.819 0 1.435-.35 1.606-.914z">
        </path>
        <path fill="#6D7D7D"
            d="M398.984 70.29h-1.301v-4.05h1.3v4.05zm2.634 0h-1.308v-4.05h1.308v4.05zm13.305 6.125h-1.25l4.411-11.19h1.276l-4.437 11.19zm11.502-5.135l-4.266-2.279v-1.415l5.593 3.2v1.097l-5.593 3.2V73.66l4.266-2.273v-.108zm9.763-2.279l-4.272 2.28v.107l4.272 2.273v1.421l-5.592-3.199v-1.098l5.592-3.2v1.416zm4.043 7.414h-1.25l4.411-11.19h1.276l-4.437 11.19z">
        </path>
        <path fill="#01C6B6"
            d="M453.295 75.4h-5.808v-1.028h2.317v-7.554h-2.266v-1.035h3.535v8.589h2.222V75.4zm4.634.114c-1.32 0-2.196-.831-2.196-2.082 0-1.231.888-1.955 2.5-2.05l1.816-.095v-.61c0-.793-.495-1.238-1.384-1.238-.736 0-1.263.318-1.428.864h-1.244c.127-1.143 1.212-1.917 2.698-1.917 1.669 0 2.621.838 2.621 2.291v4.73H460.1v-1.01h-.12c-.331.71-1.074 1.117-2.051 1.117zm.393-1.06c.99 0 1.727-.654 1.727-1.536v-.73l-1.644.082c-.92.051-1.403.432-1.403 1.105 0 .666.508 1.08 1.32 1.08zm9.344 1.06c-.996 0-1.707-.425-2.031-1.206h-.12V75.4h-1.283v-9.617h1.308v3.796h.127c.279-.774 1.003-1.212 2-1.212 1.592 0 2.608 1.136 2.608 2.945v1.257c0 1.809-1.016 2.945-2.609 2.945zm-.419-1.13c1.067 0 1.74-.749 1.74-1.936v-1.034c0-1.187-.673-1.943-1.74-1.943-1.06 0-1.739.75-1.739 1.943v1.034c0 1.187.68 1.936 1.74 1.936zm8.398-4.995c-1.072 0-1.72.736-1.72 1.974h3.39c0-1.232-.622-1.974-1.67-1.974zm1.682 4.183h1.22c-.185 1.161-1.327 1.961-2.82 1.961-1.942 0-3.052-1.142-3.052-3.11v-1.054c0-1.822 1.187-3.021 2.983-3.021 1.81 0 2.907 1.193 2.907 3.16v.75h-4.64v.31c0 1.169.705 1.918 1.796 1.918.82 0 1.435-.35 1.606-.914zm9.712 1.828h-5.808v-1.028h2.317v-7.554h-2.266v-1.035h3.536v8.589h2.221V75.4z">
        </path>
        <path fill="#6D7D7D"
            d="M493.914 71.28l-4.266-2.279v-1.415l5.593 3.2v1.097l-5.593 3.2V73.66l4.266-2.273v-.108zM39.69 90.201l-4.272 2.28v.107l4.272 2.273v1.421l-5.593-3.199v-1.098l5.593-3.2v1.416zm4.043 7.414h-1.25l4.411-11.19h1.276l-4.437 11.19z">
        </path>
        <path fill="#01C6B6"
            d="M54.302 89.573c1.593 0 2.609 1.136 2.609 2.939v1.263c0 1.803-1.016 2.94-2.609 2.94-1.003 0-1.727-.439-2.006-1.213h-.12v3.421h-1.308v-9.242h1.276v1.098h.12c.324-.787 1.035-1.206 2.038-1.206zm-.425 1.13c-1.06 0-1.733.749-1.733 1.936v1.035c0 1.193.673 1.942 1.733 1.942 1.066 0 1.745-.755 1.745-1.942v-1.035c0-1.187-.679-1.936-1.745-1.936z">
        </path>
        <path fill="#6D7D7D"
            d="M63.671 92.48l-4.265-2.279v-1.415l5.592 3.2v1.097l-5.592 3.2V94.86l4.265-2.273v-.108zM39.69 111.401l-4.272 2.28v.107l4.272 2.273v1.421l-5.593-3.199v-1.098l5.593-3.2v1.416z">
        </path>
        <path fill="#01C6B6"
            d="M45.866 110.773c1.593 0 2.609 1.136 2.609 2.939v1.263c0 1.803-1.016 2.94-2.61 2.94-1.002 0-1.726-.439-2.005-1.213h-.12v3.421h-1.308v-9.242h1.276v1.098h.12c.324-.787 1.035-1.206 2.038-1.206zm-.425 1.13c-1.06 0-1.733.749-1.733 1.936v1.035c0 1.193.673 1.942 1.733 1.942 1.066 0 1.745-.755 1.745-1.942v-1.035c0-1.187-.679-1.936-1.745-1.936z">
        </path>
        <path fill="#6D7D7D"
            d="M55.235 113.68l-4.265-2.279v-1.415l5.592 3.2v1.097l-5.592 3.2v-1.422l4.265-2.273v-.108zm1.327 18.921l-4.272 2.28v.107l4.272 2.273v1.421l-5.592-3.199v-1.098l5.592-3.2v1.416z">
        </path>
        <path fill="#01C6B6"
            d="M65.233 139h-5.808v-1.028h2.317v-7.554h-2.267v-1.035h3.536v8.589h2.222V139zm4.634.114c-1.32 0-2.197-.831-2.197-2.082 0-1.231.89-1.955 2.501-2.05l1.816-.095v-.61c0-.793-.495-1.238-1.384-1.238-.736 0-1.263.318-1.428.864H67.93c.127-1.143 1.212-1.917 2.697-1.917 1.67 0 2.622.838 2.622 2.291v4.73h-1.212v-1.01h-.121c-.33.71-1.073 1.117-2.05 1.117zm.393-1.06c.99 0 1.727-.654 1.727-1.536v-.73l-1.644.082c-.92.051-1.403.432-1.403 1.105 0 .666.508 1.08 1.32 1.08zm9.344 1.06c-.996 0-1.707-.425-2.031-1.206h-.12V139H76.17v-9.617h1.308v3.796h.127c.279-.774 1.003-1.212 2-1.212 1.592 0 2.608 1.136 2.608 2.945v1.257c0 1.809-1.016 2.945-2.609 2.945zm-.419-1.13c1.067 0 1.74-.749 1.74-1.936v-1.034c0-1.187-.673-1.943-1.74-1.943-1.06 0-1.74.75-1.74 1.943v1.034c0 1.187.68 1.936 1.74 1.936zm8.398-4.995c-1.073 0-1.72.736-1.72 1.974h3.39c0-1.232-.622-1.974-1.67-1.974zm1.682 4.183h1.22c-.185 1.161-1.328 1.961-2.82 1.961-1.942 0-3.052-1.142-3.052-3.11v-1.054c0-1.822 1.187-3.021 2.983-3.021 1.809 0 2.907 1.193 2.907 3.16v.75h-4.64v.31c0 1.169.705 1.918 1.796 1.918.82 0 1.435-.35 1.606-.914zM98.977 139H93.17v-1.028h2.317v-7.554H93.22v-1.035h3.536v8.589h2.221V139z">
        </path>
        <path fill="#6D7D7D" d="M105.852 134.88l-4.266-2.279v-1.415l5.593 3.199v1.098l-5.593 3.199v-1.421l4.266-2.273z">
        </path>
        <path fill="#FFF"
            d="M115.71 137.826V139h-5.51v-9.16h5.51v1.174h-4.183v2.774h3.948v1.105h-3.948v2.933h4.183zm8.925-4V139h-1.117v-4.78c0-.743-.292-1.143-.813-1.143-.546 0-.888.47-.888 1.232v4.69h-1.111v-4.785c0-.743-.286-1.137-.813-1.137-.558 0-.908.47-.908 1.232v4.69h-1.117v-6.918h1.124v1.003h.14c.164-.717.653-1.136 1.313-1.136.648 0 1.099.406 1.245 1.11h.14c.164-.685.697-1.11 1.383-1.11.933 0 1.422.653 1.422 1.879zm4.285 5.288c-1.32 0-2.197-.831-2.197-2.082 0-1.231.889-1.955 2.501-2.05l1.816-.095v-.61c0-.793-.495-1.238-1.384-1.238-.736 0-1.263.318-1.428.864h-1.244c.127-1.143 1.212-1.917 2.697-1.917 1.67 0 2.622.838 2.622 2.291v4.73h-1.212v-1.01h-.121c-.33.71-1.073 1.117-2.05 1.117zm.393-1.06c.99 0 1.727-.654 1.727-1.536v-.73l-1.644.082c-.92.051-1.403.432-1.403 1.105 0 .666.508 1.08 1.32 1.08zm8.925-7.592c-.565 0-.984-.393-.984-.94 0-.551.42-.945.984-.945.571 0 .984.394.984.946 0 .546-.413.94-.984.94zm2.92 8.538h-5.808v-1.028h2.33v-4.863h-2.28v-1.028h3.524v5.89h2.234V139zm8.436 0h-5.808v-1.028h2.317v-7.554h-2.266v-1.035h3.535v8.589h2.222V139z">
        </path>
        <path fill="#6D7D7D" d="M166.232 132.601l-4.272 2.279v.108l4.272 2.273v1.421l-5.593-3.199v-1.098l5.593-3.199z">
        </path>
        <path fill="#01C6B6"
            d="M171.983 130.462c-.565 0-.984-.393-.984-.94 0-.551.419-.945.984-.945.57 0 .984.394.984.946 0 .546-.413.94-.984.94zm2.92 8.538h-5.809v-1.028h2.33v-4.863h-2.279v-1.028h3.523v5.89h2.235V139zm2.494 0v-6.92h1.232v1.207h.089c.361-.857 1.142-1.34 2.177-1.34 1.504 0 2.317.902 2.317 2.565V139h-1.276v-4.17c0-1.188-.476-1.746-1.498-1.746-1.06 0-1.771.743-1.771 1.86V139h-1.27zm11.883-7.027c1.593 0 2.61 1.136 2.61 2.939v1.263c0 1.803-1.017 2.94-2.61 2.94-1.003 0-1.726-.439-2.006-1.213h-.12v3.421h-1.308v-9.242h1.276v1.098h.12c.324-.787 1.035-1.206 2.038-1.206zm-.425 1.13c-1.06 0-1.733.749-1.733 1.936v1.035c0 1.193.673 1.942 1.733 1.942 1.066 0 1.745-.755 1.745-1.942v-1.035c0-1.187-.679-1.936-1.745-1.936zm11.229-1.022V139h-1.231v-1.2h-.09c-.361.85-1.142 1.333-2.177 1.333-1.504 0-2.316-.901-2.316-2.564v-4.488h1.275v4.177c0 1.18.476 1.739 1.498 1.739 1.06 0 1.771-.743 1.771-1.86v-4.056h1.27zm4.272-1.892h1.257v1.93h2.736v1.047h-2.717v3.74c0 .685.476 1.06 1.358 1.06.324 0 1.168-.014 1.32-.033v1.041c-.139.026-1.142.051-1.409.051-1.77 0-2.545-.635-2.545-2.12v-3.739h-1.828v-1.047h1.828v-1.93z">
        </path>
        <path fill="#F4BB00"
            d="M221.228 130.19h1.257v1.929h2.736v1.047h-2.717v3.74c0 .685.476 1.06 1.359 1.06.323 0 1.168-.014 1.32-.033v1.041c-.14.026-1.143.051-1.41.051-1.77 0-2.545-.635-2.545-2.12v-3.739H219.4v-1.047h1.828v-1.93zm7.72 11.285c-.198 0-.439-.012-.521-.019v-1.072c.07.012.279.019.38.019.667 0 1.029-.28 1.283-1.01l.108-.342-2.52-6.97h1.396l1.822 5.662h.089l1.809-5.662h1.352l-2.54 7.128c-.602 1.72-1.25 2.266-2.659 2.266zm10.949-9.502c1.593 0 2.609 1.136 2.609 2.939v1.263c0 1.803-1.016 2.94-2.609 2.94-1.003 0-1.727-.439-2.006-1.213h-.12v3.421h-1.308v-9.242h1.276v1.098h.12c.324-.787 1.035-1.206 2.038-1.206zm-.425 1.13c-1.06 0-1.733.749-1.733 1.936v1.035c0 1.193.673 1.942 1.733 1.942 1.066 0 1.745-.755 1.745-1.942v-1.035c0-1.187-.679-1.936-1.745-1.936zm8.398-.114c-1.073 0-1.72.736-1.72 1.974h3.39c0-1.232-.623-1.974-1.67-1.974zm1.682 4.183h1.219c-.184 1.161-1.327 1.961-2.819 1.961-1.942 0-3.053-1.142-3.053-3.11v-1.054c0-1.822 1.187-3.021 2.983-3.021 1.81 0 2.908 1.193 2.908 3.16v.75h-4.64v.31c0 1.169.704 1.918 1.796 1.918.819 0 1.434-.35 1.606-.914z">
        </path>
        <path fill="#6D7D7D"
            d="M259.588 137.051h-6.716v-1.238h6.716v1.238zm0-2.99h-6.716v-1.237h6.716v1.237zm4.418-.171h-1.302v-4.05h1.302v4.05zm2.634 0h-1.308v-4.05h1.308v4.05z">
        </path>
        <path fill="#FB6E78"
            d="M273.178 132.989c-1.073 0-1.72.736-1.72 1.974h3.39c0-1.232-.623-1.974-1.67-1.974zm1.682 4.183h1.219c-.184 1.161-1.327 1.961-2.818 1.961-1.943 0-3.054-1.142-3.054-3.11v-1.054c0-1.822 1.187-3.021 2.984-3.021 1.809 0 2.907 1.193 2.907 3.16v.75h-4.64v.31c0 1.169.704 1.918 1.796 1.918.82 0 1.435-.35 1.606-.914zm10.061-3.345V139h-1.117v-4.78c0-.743-.292-1.143-.812-1.143-.546 0-.889.47-.889 1.232v4.69h-1.11v-4.785c0-.743-.286-1.137-.813-1.137-.559 0-.908.47-.908 1.232v4.69h-1.117v-6.918h1.123v1.003h.14c.165-.717.654-1.136 1.314-1.136.647 0 1.098.406 1.244 1.11h.14c.165-.685.698-1.11 1.384-1.11.933 0 1.421.653 1.421 1.879zm4.285 5.287c-1.32 0-2.196-.831-2.196-2.082 0-1.231.889-1.955 2.5-2.05l1.816-.095v-.61c0-.793-.495-1.238-1.384-1.238-.736 0-1.263.318-1.428.864h-1.244c.127-1.143 1.213-1.917 2.698-1.917 1.67 0 2.621.838 2.621 2.291v4.73h-1.212v-1.01h-.12c-.33.71-1.073 1.117-2.05 1.117zm.394-1.06c.99 0 1.726-.654 1.726-1.536v-.73l-1.644.082c-.92.051-1.403.432-1.403 1.105 0 .666.508 1.08 1.32 1.08zm8.925-7.592c-.565 0-.984-.393-.984-.94 0-.551.419-.945.984-.945.57 0 .983.394.983.946 0 .546-.412.94-.983.94zm2.92 8.538h-5.809v-1.028h2.33v-4.863h-2.279v-1.028h3.523v5.89h2.235V139zm8.436 0h-5.808v-1.028h2.316v-7.554h-2.266v-1.035h3.536v8.589h2.222V139z">
        </path>
        <path fill="#6D7D7D" d="M314.622 133.89h-1.3v-4.05h1.3v4.05zm2.635 0h-1.308v-4.05h1.308v4.05z"></path>
        <path fill="#F4BB00"
            d="M329.248 139v-6.92h1.231v1.207h.089c.362-.857 1.143-1.34 2.177-1.34 1.505 0 2.317.902 2.317 2.565V139h-1.276v-4.17c0-1.188-.476-1.746-1.498-1.746-1.06 0-1.77.743-1.77 1.86V139h-1.27zm10.575.114c-1.32 0-2.196-.831-2.196-2.082 0-1.231.888-1.955 2.5-2.05l1.816-.095v-.61c0-.793-.495-1.238-1.384-1.238-.736 0-1.263.318-1.428.864h-1.244c.127-1.143 1.212-1.917 2.698-1.917 1.67 0 2.621.838 2.621 2.291v4.73h-1.212v-1.01h-.12c-.33.71-1.074 1.117-2.051 1.117zm.394-1.06c.99 0 1.726-.654 1.726-1.536v-.73l-1.644.082c-.92.051-1.403.432-1.403 1.105 0 .666.508 1.08 1.32 1.08zm12.193-4.227V139h-1.117v-4.78c0-.743-.292-1.143-.812-1.143-.546 0-.889.47-.889 1.232v4.69h-1.11v-4.785c0-.743-.286-1.137-.813-1.137-.559 0-.908.47-.908 1.232v4.69h-1.117v-6.918h1.123v1.003h.14c.165-.717.654-1.136 1.314-1.136.647 0 1.098.406 1.244 1.11h.14c.165-.685.698-1.11 1.384-1.11.933 0 1.421.653 1.421 1.879zm5.13-.838c-1.073 0-1.72.736-1.72 1.974h3.389c0-1.232-.622-1.974-1.67-1.974zm1.682 4.183h1.218c-.184 1.161-1.326 1.961-2.818 1.961-1.942 0-3.053-1.142-3.053-3.11v-1.054c0-1.822 1.187-3.021 2.983-3.021 1.81 0 2.907 1.193 2.907 3.16v.75h-4.64v.31c0 1.169.705 1.918 1.797 1.918.818 0 1.434-.35 1.606-.914z">
        </path>
        <path fill="#6D7D7D"
            d="M369.257 137.051h-6.715v-1.238h6.715v1.238zm0-2.99h-6.715v-1.237h6.715v1.237zm4.418-.171h-1.3v-4.05h1.3v4.05zm2.635 0h-1.308v-4.05h1.308v4.05z">
        </path>
        <path fill="#FB6E78"
            d="M382.848 132.989c-1.073 0-1.72.736-1.72 1.974h3.39c0-1.232-.623-1.974-1.67-1.974zm1.682 4.183h1.219c-.184 1.161-1.327 1.961-2.819 1.961-1.942 0-3.053-1.142-3.053-3.11v-1.054c0-1.822 1.187-3.021 2.984-3.021 1.809 0 2.907 1.193 2.907 3.16v.75h-4.64v.31c0 1.169.704 1.918 1.796 1.918.819 0 1.435-.35 1.606-.914zm10.061-3.345V139h-1.117v-4.78c0-.743-.292-1.143-.813-1.143-.545 0-.888.47-.888 1.232v4.69h-1.111v-4.785c0-.743-.286-1.137-.813-1.137-.558 0-.907.47-.907 1.232v4.69h-1.117v-6.918h1.123v1.003h.14c.165-.717.654-1.136 1.314-1.136.647 0 1.098.406 1.244 1.11h.14c.164-.685.698-1.11 1.383-1.11.933 0 1.422.653 1.422 1.879zm4.285 5.287c-1.32 0-2.196-.831-2.196-2.082 0-1.231.888-1.955 2.5-2.05l1.816-.095v-.61c0-.793-.495-1.238-1.384-1.238-.736 0-1.263.318-1.428.864h-1.244c.127-1.143 1.212-1.917 2.698-1.917 1.669 0 2.621.838 2.621 2.291v4.73h-1.212v-1.01h-.12c-.33.71-1.074 1.117-2.051 1.117zm.393-1.06c.99 0 1.727-.654 1.727-1.536v-.73l-1.644.082c-.92.051-1.403.432-1.403 1.105 0 .666.508 1.08 1.32 1.08zm8.925-7.592c-.565 0-.984-.393-.984-.94 0-.551.42-.945.984-.945.572 0 .984.394.984.946 0 .546-.412.94-.984.94zm2.92 8.538h-5.808v-1.028h2.33v-4.863h-2.28v-1.028h3.524v5.89h2.234V139zm8.436 0h-5.808v-1.028h2.317v-7.554h-2.266v-1.035h3.536v8.589h2.221V139z">
        </path>
        <path fill="#6D7D7D"
            d="M424.292 133.89h-1.301v-4.05h1.301v4.05zm2.634 0h-1.307v-4.05h1.307v4.05zm13.305 6.125h-1.25l4.411-11.19h1.276l-4.437 11.19zm11.502-5.135l-4.265-2.279v-1.415l5.592 3.2v1.097l-5.592 3.2v-1.422l4.265-2.273v-.108zm9.763-2.279l-4.272 2.28v.107l4.272 2.273v1.421l-5.592-3.199v-1.098l5.592-3.2v1.416zm4.044 7.414h-1.25l4.41-11.19h1.277l-4.437 11.19z">
        </path>
        <path fill="#01C6B6"
            d="M478.603 139h-5.808v-1.028h2.317v-7.554h-2.266v-1.035h3.536v8.589h2.221V139zm4.634.114c-1.32 0-2.196-.831-2.196-2.082 0-1.231.889-1.955 2.5-2.05l1.816-.095v-.61c0-.793-.495-1.238-1.383-1.238-.737 0-1.264.318-1.429.864h-1.244c.127-1.143 1.213-1.917 2.698-1.917 1.67 0 2.622.838 2.622 2.291v4.73h-1.213v-1.01h-.12c-.33.71-1.073 1.117-2.05 1.117zm.394-1.06c.99 0 1.726-.654 1.726-1.536v-.73l-1.644.082c-.92.051-1.403.432-1.403 1.105 0 .666.508 1.08 1.32 1.08zm9.344 1.06c-.997 0-1.708-.425-2.032-1.206h-.12V139h-1.282v-9.617h1.307v3.796h.127c.28-.774 1.003-1.212 2-1.212 1.593 0 2.608 1.136 2.608 2.945v1.257c0 1.809-1.015 2.945-2.608 2.945zm-.42-1.13c1.067 0 1.74-.749 1.74-1.936v-1.034c0-1.187-.673-1.943-1.74-1.943-1.06 0-1.739.75-1.739 1.943v1.034c0 1.187.68 1.936 1.74 1.936zm8.399-4.995c-1.073 0-1.72.736-1.72 1.974h3.39c0-1.232-.623-1.974-1.67-1.974zm1.682 4.183h1.219c-.184 1.161-1.327 1.961-2.819 1.961-1.942 0-3.053-1.142-3.053-3.11v-1.054c0-1.822 1.187-3.021 2.983-3.021 1.81 0 2.908 1.193 2.908 3.16v.75h-4.64v.31c0 1.169.704 1.918 1.796 1.918.819 0 1.434-.35 1.606-.914zm9.712 1.828h-5.808v-1.028h2.317v-7.554h-2.266v-1.035h3.535v8.589h2.222V139z">
        </path>
        <path fill="#6D7D7D"
            d="M519.222 134.88l-4.265-2.279v-1.415l5.592 3.2v1.097l-5.592 3.2v-1.422l4.265-2.273v-.108zM39.69 153.801l-4.272 2.28v.107l4.272 2.273v1.421l-5.593-3.199v-1.098l5.593-3.2v1.416zm4.043 7.414h-1.25l4.411-11.19h1.276l-4.437 11.19z">
        </path>
        <path fill="#01C6B6"
            d="M54.302 153.173c1.593 0 2.609 1.136 2.609 2.939v1.263c0 1.803-1.016 2.94-2.609 2.94-1.003 0-1.727-.439-2.006-1.213h-.12v3.421h-1.308v-9.242h1.276v1.098h.12c.324-.787 1.035-1.206 2.038-1.206zm-.425 1.13c-1.06 0-1.733.749-1.733 1.936v1.035c0 1.193.673 1.942 1.733 1.942 1.066 0 1.745-.755 1.745-1.942v-1.035c0-1.187-.679-1.936-1.745-1.936z">
        </path>
        <path fill="#6D7D7D"
            d="M63.671 156.08l-4.265-2.279v-1.415l5.592 3.2v1.097l-5.592 3.2v-1.422l4.265-2.273v-.108zM39.69 175.001l-4.272 2.28v.107l4.272 2.273v1.421l-5.593-3.199v-1.098l5.593-3.2v1.416z">
        </path>
        <path fill="#01C6B6"
            d="M45.866 174.373c1.593 0 2.609 1.136 2.609 2.939v1.263c0 1.803-1.016 2.94-2.61 2.94-1.002 0-1.726-.439-2.005-1.213h-.12v3.421h-1.308v-9.242h1.276v1.098h.12c.324-.787 1.035-1.206 2.038-1.206zm-.425 1.13c-1.06 0-1.733.749-1.733 1.936v1.035c0 1.193.673 1.942 1.733 1.942 1.066 0 1.745-.755 1.745-1.942v-1.035c0-1.187-.679-1.936-1.745-1.936z">
        </path>
        <path fill="#6D7D7D"
            d="M55.235 177.28l-4.265-2.279v-1.415l5.592 3.2v1.097l-5.592 3.2v-1.422l4.265-2.273v-.108zm1.327 18.921l-4.272 2.28v.107l4.272 2.273v1.421l-5.592-3.199v-1.098l5.592-3.2v1.416z">
        </path>
        <path fill="#01C6B6"
            d="M62.732 202.714c-.997 0-1.708-.425-2.031-1.206h-.121v1.092h-1.282v-9.617h1.307v3.796h.127c.28-.774 1.003-1.212 2-1.212 1.593 0 2.609 1.136 2.609 2.945v1.257c0 1.809-1.016 2.945-2.61 2.945zm-.42-1.13c1.067 0 1.74-.749 1.74-1.936v-1.034c0-1.187-.673-1.943-1.74-1.943-1.06 0-1.738.75-1.738 1.943v1.034c0 1.187.679 1.936 1.739 1.936zm11.23-5.903v6.919h-1.231v-1.2h-.09c-.361.85-1.142 1.333-2.177 1.333-1.504 0-2.316-.901-2.316-2.564v-4.488h1.275v4.177c0 1.18.476 1.739 1.498 1.739 1.06 0 1.771-.743 1.771-1.86v-4.056h1.27zm4.272-1.892h1.257v1.93h2.736v1.047H79.09v3.74c0 .685.476 1.06 1.358 1.06.324 0 1.168-.014 1.32-.033v1.041c-.139.026-1.142.051-1.409.051-1.77 0-2.545-.635-2.545-2.12v-3.739h-1.828v-1.047h1.828v-1.93zm8.436 0h1.257v1.93h2.736v1.047h-2.717v3.74c0 .685.476 1.06 1.358 1.06.324 0 1.168-.014 1.32-.033v1.041c-.139.026-1.142.051-1.408.051-1.771 0-2.546-.635-2.546-2.12v-3.739h-1.828v-1.047h1.828v-1.93zm9.693 8.944c-1.866 0-3.053-1.193-3.053-3.066v-1.047c0-1.879 1.187-3.066 3.053-3.066 1.866 0 3.053 1.187 3.053 3.066v1.047c0 1.873-1.187 3.066-3.053 3.066zm0-6.1c-1.104 0-1.796.794-1.796 2.076v.87c0 1.282.692 2.075 1.796 2.075 1.105 0 1.797-.793 1.797-2.076v-.87c0-1.281-.692-2.075-1.797-2.075zm5.53 5.967v-6.92h1.23v1.207h.09c.361-.857 1.142-1.34 2.177-1.34 1.504 0 2.317.902 2.317 2.565v4.488h-1.276v-4.17c0-1.188-.476-1.746-1.498-1.746-1.06 0-1.771.743-1.771 1.86v4.056h-1.27z">
        </path>
        <path fill="#F4BB00"
            d="M119.995 193.79h1.257v1.929h2.735v1.047h-2.716v3.74c0 .685.476 1.06 1.358 1.06.324 0 1.168-.014 1.32-.033v1.041c-.14.026-1.142.051-1.409.051-1.77 0-2.545-.635-2.545-2.12v-3.739h-1.828v-1.047h1.828v-1.93zm7.719 11.285c-.197 0-.438-.012-.52-.019v-1.072c.069.012.278.019.38.019.666 0 1.028-.28 1.282-1.01l.108-.342-2.52-6.97h1.397l1.821 5.662h.09l1.808-5.662h1.352l-2.539 7.128c-.603 1.72-1.25 2.266-2.66 2.266zm10.95-9.502c1.593 0 2.608 1.136 2.608 2.939v1.263c0 1.803-1.015 2.94-2.609 2.94-1.003 0-1.726-.439-2.005-1.213h-.121v3.421h-1.308v-9.242h1.276v1.098h.12c.325-.787 1.035-1.206 2.038-1.206zm-.426 1.13c-1.06 0-1.733.749-1.733 1.936v1.035c0 1.193.673 1.942 1.733 1.942 1.066 0 1.746-.755 1.746-1.942v-1.035c0-1.187-.68-1.936-1.746-1.936zm8.398-.114c-1.073 0-1.72.736-1.72 1.974h3.39c0-1.232-.623-1.974-1.67-1.974zm1.682 4.183h1.219c-.184 1.161-1.327 1.961-2.818 1.961-1.943 0-3.054-1.142-3.054-3.11v-1.054c0-1.822 1.187-3.021 2.984-3.021 1.809 0 2.907 1.193 2.907 3.16v.75h-4.64v.31c0 1.169.705 1.918 1.796 1.918.82 0 1.435-.35 1.606-.914z">
        </path>
        <path fill="#6D7D7D"
            d="M158.354 200.651h-6.716v-1.238h6.716v1.238zm0-2.99h-6.716v-1.237h6.716v1.237zm4.418-.171h-1.301v-4.05h1.301v4.05zm2.634 0H164.1v-4.05h1.307v4.05z">
        </path>
        <path fill="#FB6E78"
            d="M169.266 197.592c0-1.238 1.034-2.05 2.621-2.05 1.511 0 2.501.723 2.616 1.923h-1.22c-.113-.565-.653-.914-1.415-.914-.812 0-1.339.38-1.339.952 0 .495.336.768 1.143.945l1.003.223c1.364.304 1.98.888 1.98 1.904 0 1.314-1.085 2.152-2.774 2.152-1.631 0-2.685-.73-2.8-1.949h1.283c.14.59.71.927 1.549.927.87 0 1.428-.387 1.428-.99 0-.508-.311-.768-1.149-.959l-1.035-.235c-1.263-.285-1.891-.92-1.891-1.93zm13.946-1.911v6.919h-1.232v-1.2h-.089c-.361.85-1.142 1.333-2.177 1.333-1.504 0-2.317-.901-2.317-2.564v-4.488h1.276v4.177c0 1.18.476 1.739 1.498 1.739 1.06 0 1.771-.743 1.771-1.86v-4.056h1.27zm6.062 7.033c-.997 0-1.708-.425-2.031-1.206h-.121v1.092h-1.282v-9.617h1.307v3.796h.127c.28-.774 1.003-1.212 2-1.212 1.593 0 2.609 1.136 2.609 2.945v1.257c0 1.809-1.016 2.945-2.61 2.945zm-.42-1.13c1.067 0 1.74-.749 1.74-1.936v-1.034c0-1.187-.673-1.943-1.74-1.943-1.06 0-1.738.75-1.738 1.943v1.034c0 1.187.679 1.936 1.739 1.936zm11.706-4.157v5.173h-1.117v-4.78c0-.743-.292-1.143-.813-1.143-.546 0-.888.47-.888 1.232v4.69h-1.111v-4.785c0-.743-.286-1.137-.813-1.137-.558 0-.907.47-.907 1.232v4.69h-1.118v-6.918h1.124v1.003h.14c.165-.717.653-1.136 1.314-1.136.647 0 1.098.406 1.244 1.11h.14c.164-.685.698-1.11 1.383-1.11.933 0 1.422.653 1.422 1.879zm5.167-3.365c-.565 0-.984-.393-.984-.94 0-.551.42-.945.984-.945.571 0 .984.394.984.946 0 .546-.413.94-.984.94zm2.92 8.538h-5.808v-1.028h2.33v-4.863h-2.28v-1.028h3.524v5.89h2.234v1.029zm4.145-8.81h1.257v1.929h2.736v1.047h-2.717v3.74c0 .685.476 1.06 1.358 1.06.324 0 1.168-.014 1.32-.033v1.041c-.139.026-1.142.051-1.408.051-1.771 0-2.546-.635-2.546-2.12v-3.739h-1.828v-1.047h1.828v-1.93z">
        </path>
        <path fill="#6D7D7D"
            d="M221.825 197.49h-1.301v-4.05h1.301v4.05zm2.634 0h-1.307v-4.05h1.307v4.05zm7.935.99l-4.266-2.279v-1.415l5.593 3.2v1.097l-5.593 3.2v-1.422l4.266-2.273v-.108z">
        </path>
        <path fill="#FFF"
            d="M236.14 200.124h1.275c.102.952.857 1.517 2.025 1.517 1.155 0 1.898-.59 1.898-1.51 0-.743-.489-1.181-1.676-1.473l-.838-.197c-1.688-.419-2.469-1.244-2.469-2.577 0-1.6 1.206-2.634 3.072-2.634 1.784 0 3.003 1.022 3.073 2.57h-1.27c-.102-.894-.768-1.421-1.79-1.421-1.098 0-1.758.52-1.758 1.39 0 .749.476 1.18 1.612 1.453l.838.21c1.777.425 2.533 1.206 2.533 2.59 0 1.688-1.25 2.748-3.238 2.748-1.948 0-3.199-1.015-3.288-2.666zm11.73-3.535c-1.073 0-1.72.736-1.72 1.974h3.39c0-1.232-.623-1.974-1.67-1.974zm1.682 4.183h1.219c-.184 1.161-1.327 1.961-2.819 1.961-1.942 0-3.053-1.142-3.053-3.11v-1.054c0-1.822 1.187-3.021 2.983-3.021 1.81 0 2.908 1.193 2.908 3.16v.75h-4.64v.31c0 1.169.704 1.918 1.796 1.918.819 0 1.434-.35 1.606-.914zm3.77 1.828v-6.92h1.232v1.207h.089c.362-.857 1.142-1.34 2.177-1.34 1.504 0 2.317.902 2.317 2.565v4.488h-1.276v-4.17c0-1.188-.476-1.746-1.498-1.746-1.06 0-1.771.743-1.771 1.86v4.056h-1.27zm9.49-3.986v1.034c0 1.187.673 1.936 1.74 1.936 1.066 0 1.739-.749 1.739-1.936v-1.034c0-1.194-.673-1.943-1.74-1.943-1.066 0-1.739.756-1.739 1.943zm3.479 2.894h-.12c-.33.78-1.042 1.206-2.038 1.206-1.594 0-2.61-1.136-2.61-2.945v-1.257c0-1.81 1.016-2.945 2.61-2.945.996 0 1.726.438 2.005 1.212h.121v-3.796h1.308v9.617h-1.276v-1.092z">
        </path>
        <path fill="#6D7D7D"
            d="M275.901 196.201l-4.272 2.28v.107l4.272 2.273v1.421l-5.592-3.199v-1.098l5.592-3.2v1.416zm4.044 7.414h-1.25l4.411-11.19h1.276l-4.437 11.19z">
        </path>
        <path fill="#01C6B6"
            d="M290.507 202.714c-.996 0-1.707-.425-2.03-1.206h-.121v1.092h-1.283v-9.617h1.308v3.796h.127c.28-.774 1.003-1.212 2-1.212 1.593 0 2.608 1.136 2.608 2.945v1.257c0 1.809-1.015 2.945-2.609 2.945zm-.419-1.13c1.067 0 1.74-.749 1.74-1.936v-1.034c0-1.187-.673-1.943-1.74-1.943-1.06 0-1.739.75-1.739 1.943v1.034c0 1.187.68 1.936 1.74 1.936zm11.23-5.903v6.919h-1.232v-1.2h-.089c-.362.85-1.142 1.333-2.177 1.333-1.504 0-2.317-.901-2.317-2.564v-4.488h1.276v4.177c0 1.18.476 1.739 1.498 1.739 1.06 0 1.771-.743 1.771-1.86v-4.056h1.27zm4.272-1.892h1.256v1.93h2.736v1.047h-2.716v3.74c0 .685.476 1.06 1.358 1.06.324 0 1.168-.014 1.32-.033v1.041c-.14.026-1.142.051-1.409.051-1.77 0-2.545-.635-2.545-2.12v-3.739h-1.828v-1.047h1.828v-1.93zm8.436 0h1.257v1.93h2.735v1.047h-2.716v3.74c0 .685.476 1.06 1.358 1.06.324 0 1.168-.014 1.32-.033v1.041c-.14.026-1.142.051-1.409.051-1.77 0-2.545-.635-2.545-2.12v-3.739h-1.828v-1.047h1.828v-1.93zm9.693 8.944c-1.866 0-3.053-1.193-3.053-3.066v-1.047c0-1.879 1.187-3.066 3.053-3.066 1.866 0 3.053 1.187 3.053 3.066v1.047c0 1.873-1.187 3.066-3.053 3.066zm0-6.1c-1.105 0-1.797.794-1.797 2.076v.87c0 1.282.692 2.075 1.797 2.075 1.104 0 1.796-.793 1.796-2.076v-.87c0-1.281-.692-2.075-1.796-2.075zm5.529 5.967v-6.92h1.231v1.207h.089c.362-.857 1.143-1.34 2.177-1.34 1.505 0 2.317.902 2.317 2.565v4.488h-1.276v-4.17c0-1.188-.476-1.746-1.498-1.746-1.06 0-1.77.743-1.77 1.86v4.056h-1.27z">
        </path>
        <path fill="#6D7D7D"
            d="M342.064 198.48l-4.266-2.279v-1.415l5.592 3.2v1.097l-5.592 3.2v-1.422l4.266-2.273v-.108zM39.69 217.401l-4.272 2.28v.107l4.272 2.273v1.421l-5.593-3.199v-1.098l5.593-3.2v1.416zm4.043 7.414h-1.25l4.411-11.19h1.276l-4.437 11.19z">
        </path>
        <path fill="#01C6B6"
            d="M54.302 216.773c1.593 0 2.609 1.136 2.609 2.939v1.263c0 1.803-1.016 2.94-2.609 2.94-1.003 0-1.727-.439-2.006-1.213h-.12v3.421h-1.308v-9.242h1.276v1.098h.12c.324-.787 1.035-1.206 2.038-1.206zm-.425 1.13c-1.06 0-1.733.749-1.733 1.936v1.035c0 1.193.673 1.942 1.733 1.942 1.066 0 1.745-.755 1.745-1.942v-1.035c0-1.187-.679-1.936-1.745-1.936z">
        </path>
        <path fill="#6D7D7D"
            d="M63.671 219.68l-4.265-2.279v-1.415l5.592 3.2v1.097l-5.592 3.2v-1.422l4.265-2.273v-.108zm-40.854 18.921l-4.272 2.28v.107l4.272 2.273v1.421l-5.592-3.199v-1.098l5.592-3.2v1.416zm4.044 7.414h-1.25l4.411-11.19h1.276l-4.437 11.19z">
        </path>
        <path fill="#01C6B6"
            d="M35.824 245v-5.834H33.97v-1.047h1.854v-.647c0-1.397.8-2.013 2.552-2.013.33 0 1.485.026 1.675.057v.984a33.23 33.23 0 0 0-1.65-.05c-.87 0-1.327.336-1.327.977v.692h2.977v1.047h-2.958V245h-1.27zm9.502.133c-1.866 0-3.053-1.193-3.053-3.066v-1.047c0-1.879 1.187-3.066 3.053-3.066 1.867 0 3.054 1.187 3.054 3.066v1.047c0 1.873-1.187 3.066-3.054 3.066zm0-6.1c-1.104 0-1.796.794-1.796 2.076v.87c0 1.282.692 2.075 1.796 2.075 1.105 0 1.797-.793 1.797-2.076v-.87c0-1.281-.692-2.075-1.797-2.075zm8.202.813h.177c.273-1.302 1.08-1.943 2.406-1.943.394 0 .768.051.997.146v1.397a3.62 3.62 0 0 0-1.143-.197c-1.561 0-2.431.971-2.431 2.666v2.107h2.101V245h-4.71v-.978h1.371v-4.964h-1.504v-.977h2.736v1.765zm12.054-.02V245h-1.117v-4.78c0-.743-.292-1.143-.813-1.143-.546 0-.888.47-.888 1.232v4.69h-1.111v-4.785c0-.743-.286-1.137-.813-1.137-.558 0-.907.47-.907 1.232v4.69h-1.118v-6.918h1.124v1.003h.14c.165-.717.653-1.136 1.313-1.136.648 0 1.099.406 1.245 1.11h.14c.164-.685.698-1.11 1.383-1.11.933 0 1.422.653 1.422 1.879z">
        </path>
        <path fill="#6D7D7D" d="M72.107 240.88l-4.265-2.279v-1.415l5.592 3.199v1.098l-5.592 3.199v-1.421l4.265-2.273z">
        </path>
    </g>
</svg>