<svg xmlns="http://www.w3.org/2000/svg" width="424" height="424">
  <defs>
    <linearGradient id="a" x1="212" x2="212" y1="424" gradientUnits="userSpaceOnUse">
      <stop offset="0" stop-color="#3fb1e0" />
      <stop offset="1" stop-color="#fff" stop-opacity="0" />
    </linearGradient>
    <linearGradient id="b" x1="376.6" x2="339.7" y1="265.89" y2="265.89" gradientUnits="userSpaceOnUse">
      <stop offset="0" stop-color="#005d70" />
      <stop offset="1" stop-color="#003f5e" />
    </linearGradient>
  </defs>
  <path fill="#ff927c"
    d="M394.94 180c-3.59 2.33-6.8 4.37-7.16 4.83-.69.89-2.32 4.89-3.47 5.74-1.41 1-7.23 2-7.23 2v-5.37c1.22-.32 3.07-1.16 4.07-1.4a13.85 13.85 0 0 0 5-2.69l-2.28-3c2.11-2.14 4.86-5 6.08-6.32a7 7 0 0 0 .47-.55z" />
  <path fill="#00aea0" stroke="#00aea0" stroke-miterlimit="10"
    d="M404 173.75c-2 1.62-5.69 4.08-9.08 6.28l-4.57-6.81c.68-.83 1.45-2 2.29-3.26.64-1-12.59-7.73-14.26-8.25L373.24 135c2 1.38 28.14 22.28 30.78 24.91s4.04 10.5-.02 13.84z" />
  <path fill="#ff927c"
    d="M386.92 183a15.86 15.86 0 0 1-5.74 3.12c-1.16.28-3.31 1.26-4.72 1.63-.66.18-1.16.22-1.31 0-1.1-1.78 5.16-4.74 6-5.28a41.51 41.51 0 0 0 3.1-3z" />
  <path fill="none" stroke="#00838c" stroke-miterlimit="10" d="M392.66 170a41.81 41.81 0 0 1 5.52-7.25" />
  <path fill="url(#a)"
    d="M136.65 0C198.35 0 247 12.71 277.37 93.17 315.82 195.07 409 164.53 421.73 226 437 299.94 380.12 424 207 424S0 283.35 0 230-8.34 0 136.65 0z"
    opacity=".3" />
  <path fill="#fff" d="M400.6 119.11v198.22a1.28 1.28 0 0 1-1.2 1.34H142.87a1.26 1.26 0 0 1-1.2-1.34V119.11z" />
  <path fill="#3fb1e0" d="M400.6 96.35v22.76H141.67V96.35a2.53 2.53 0 0 1 2.4-2.67H398.2a2.55 2.55 0 0 1 2.4 2.67z" />
  <path fill="none" stroke="#000" stroke-miterlimit="10" d="M141.67 119.11h-.01" />
  <circle cx="157.34" cy="106.4" r="3.85" fill="#008ac4" />
  <circle cx="172.58" cy="106.4" r="3.85" fill="#008ac4" />
  <circle cx="187.82" cy="106.4" r="3.85" fill="#008ac4" />
  <circle cx="271.13" cy="218.74" r="31.69" fill="#3fb1e0" />
  <path fill="none" stroke="#fff" stroke-miterlimit="10" stroke-width="3" d="M260.98 218.65l9.84 11.34 13.72-22.5" />
  <path fill="none" stroke="#006dad" stroke-miterlimit="10" stroke-width="3" d="M239.44 218.74H201.2" />
  <path fill="none" stroke="#3fb1e0" stroke-miterlimit="10" stroke-width="3"
    d="M337.95 218.74h-26.6m-40.22-40.21v-26.6m-28.42 38.39l-9.4-9.4m37.82 78.04v26.6m28.42-38.39l9.41 9.4" />
  <path fill="none" stroke="#000" stroke-miterlimit="10" d="M299.55 190.32l9.41-9.4" />
  <path fill="none" stroke="#3fb1e0" stroke-miterlimit="10" stroke-width="3" d="M242.71 247.17l-9.4 9.4" />
  <path fill="none" stroke="#006dad" stroke-miterlimit="10" stroke-width="3"
    d="M148 55.43h51.2a2 2 0 0 1 2 2v297.49a2 2 0 0 1-2 2H148m-.05-201.4h53.25m-53.25 101.31h53.25" />
  <path fill="#ff927c"
    d="M394.94 180c-3.59 2.33-6.8 4.37-7.16 4.83-.69.89-2.32 4.89-3.47 5.74-1.41 1-7.23 2-7.23 2v-5.37c1.22-.32 3.07-1.16 4.07-1.4a13.85 13.85 0 0 0 5-2.69l-2.28-3c2.11-2.14 4.86-5 6.08-6.32a7 7 0 0 0 .47-.55zm-57.31 176.73c7.05 0 15.83-2.08 17.5-3.08a24 24 0 0 1-.67-10.58c.54-3.46 2.17-8.32 3.83-13.73h-12.45c-.24 8-1 13.36-1.83 14.8-4.66 7.79-15.16 10.09-21 11.5h-.12c-.67.41 7.95 1.09 14.74 1.09z" />
  <path fill="#003f5e"
    d="M355.07 277.28c.86 2.88 17.39 31.91 26.56 48.27l9.83-6c-3-8.53-6.45-19.89-8.85-28.47-4.08-14.58-7.34-18.46-8.52-22.59s5.07-28.43 7.06-39.37 1.9-22.7 0-26.64l-24.53-.06s-4.38 65.38-1.55 74.86z" />
  <path fill="#ff927c"
    d="M377.31 355.64c1.5 2.63 9.49-1.26 11.24-3s10.5-15.62 11.33-18.33c-.88-.79-1.93-1.73-3.07-2.9s-3.22-5.91-5.35-11.88l-9.83 6c3.24 5.77 5.55 10 5.95 10.88 1.52 3.53-2.66 11.17-5.49 15.7a9.26 9.26 0 0 1-4.78 3.53z" />
  <path fill="#003f5e"
    d="M372.75 357.79c.85 1.56 5 2 11.32 2s7.5-5.94 11.89-11.74c3.27-4.32 6.65-8.63 6.51-10.33-.09-1.07-1.08-2-2.59-3.4-.83 2.71-9.58 16.58-11.33 18.33s-9.74 5.64-11.24 3c-2.64.99-5.06 1.21-4.56 2.14z" />
  <path fill="url(#b)"
    d="M339.7 262.55c0 10.24 2.82 12.12 5 36.35 1.09 12 .34 22.54.11 30.44h14.45a90.51 90.51 0 0 0 3.23-18.58c1-11.69.67-36.26 1.44-42.61s12.64-44.81 12.64-59.55v-6.16h-35.34c-.69 20.46-1.5 50.9-1.53 60.11z" />
  <path fill="#003f5e"
    d="M336.93 359.56c7.8 0 19 1.35 18.81-2.37a19.45 19.45 0 0 0-.61-3.54c-1.67 1-10.45 3.08-17.5 3.08-6.79 0-14.6-.57-14.72-1.05-2.24.54-3.76.95-3.94 1.51-1.21 3.67 10.17 2.37 17.96 2.37zm5.72-250.48l4.54-3.29c-3.92-2.71-7.62-4.71-9.27-8.3a5.33 5.33 0 0 0-.23.63c-2.03 6.44 2.31 10.29 4.96 10.96z" />
  <path fill="#ff927c"
    d="M358.58 136.84c0-3.19-2.89-10.39-3.53-11.43s-4.17 1.42-6.93 1.17c-2.05-.18-2.51-2.7-2.83-3.54s-1.58-1.55-2-2.27-.69-1.9-1-2.37-3.12-.71-3.24-1.86 1.91-3.73 2.55-4.86 0-2.6-1-4.5-1-6.12.48-8.1c2.9-3.93 15-10.29 22.7-1.45s4.07 14.68 2.15 18.06a9.39 9.39 0 0 0-.07 9.79c1.76 2.84 6.48 10.67 6.48 10.67z" />
  <path fill="none" stroke="#ef5c8a" stroke-miterlimit="10" d="M346.8 117.48a7.09 7.09 0 0 1-4.26 3.44" />
  <circle cx="344.08" cy="111.73" r=".68" fill="#003f5e" stroke="#003f5e" stroke-miterlimit="10" />
  <path fill="none" stroke="#003f5e" stroke-miterlimit="10" d="M341.2 107.19c1.8-.35 3.85.54 5.19 1.31" />
  <path fill="#ff927c"
    d="M299.54 190.87c-2.89.93-6.19 5.37-6.84 6a42 42 0 0 1-5.95 3.43c-1.28.55-4.15 2.35-4.41 1.92s0-2.09 1-3.38 4-2.87 4.33-3.64-.24-2.52-1.29-2.58c-2.19-.12-8.14 2.49-10.09 3s-4.92.48-5-.06 5.95-3.83 6.93-4.38a59.78 59.78 0 0 1 7.47-3.7c.81-.24 5.87-2 11.66-4z" />
  <path fill="#00aea0"
    d="M341.23 202.44s1.31-21.36 1.83-28.95c-4.29 5.87-8.74 11.16-11.32 12.71-2.22 1.33-28.66 4.07-31.65 4.54a4 4 0 0 0-.55.13l-2.19-7.37c6.37-2.18 13.61-4.59 17-5.42 6.5-1.58 10.32-3.49 12-6.28s17.38-29.93 19.48-31.52c5-3.74 21.36-9.38 23.79-9.41s7.82 11.47 9.42 21.53 1.91 32.89 2.06 50z" />
  <path fill="#ff927c"
    d="M286.94 200s-4.07-.53-4.72-1-2.67-2.23-2.94-3.55c-.13-.59 1.36-4.33 2.48-6h4.43c-.6 1.07-3.06 4.2-3 5a9.56 9.56 0 0 0 1.23 2.57c.36.44 3.75 1.72 2.52 2.98z" />
  <path fill="#00aea0" stroke="#00aea0" stroke-miterlimit="10"
    d="M404 173.75c-2 1.62-5.69 4.08-9.08 6.28l-4.57-6.81c.68-.83 1.45-2 2.29-3.26.64-1-12.59-7.73-14.26-8.25L373.24 135c2 1.38 28.14 22.28 30.78 24.91s4.04 10.5-.02 13.84z" />
  <path fill="#ff927c"
    d="M386.92 183a15.86 15.86 0 0 1-5.74 3.12c-1.16.28-3.31 1.26-4.72 1.63-.66.18-1.16.22-1.31 0-1.1-1.78 5.16-4.74 6-5.28a41.51 41.51 0 0 0 3.1-3z" />
  <path fill="none" stroke="#00838c" stroke-miterlimit="10" d="M392.66 170a41.81 41.81 0 0 1 5.52-7.25" />
  <path fill="#003f5e"
    d="M338 97.53c1.65 3.59 5.69 6.1 9.61 8.81 3.69 2.57 7.58 5.77 10.22 11.56s2.46 11.85 4.36 16.86 7 9 10.31 9.79c4.61 1.17 10.31 1.36 12.84-2.91 5.29-8.95-4-9.6-4.23-18.87-.32-11-7.48-11.92-8-14.06s3-11.18-9.62-18.19c-10.81-5.95-22.97.72-25.49 7.01z" />
  <path fill="none" stroke="#00838c" stroke-miterlimit="10" d="M342.56 174.53v.22c4.57-6.25 8.95-13.14 10.67-16.86" />
  <rect width="117.05" height="45.37" x="41.38" y="32.74" fill="#3fb1e0" rx="2" ry="2" />
  <path fill="#006dad" d="M75.63 66.26l-17.54.19s-.81-9.7 8.66-9.81 8.88 9.62 8.88 9.62z" />
  <circle cx="66.66" cy="48.53" r="4.55" fill="#006dad" />
  <path fill="none" stroke="#006dad" stroke-miterlimit="10" stroke-width="2"
    d="M100.31 45.4l.2 18.8m9.3-9.5l-18.8.2m15.98-6.82L93.84 61.52m13.29-.14L93.69 48.23m38.56-3.18l.2 18.81m9.3-9.51l-18.8.21m15.98-6.82l-13.15 13.43m13.29-.14l-13.44-13.15" />
  <rect width="117.05" height="45.37" x="41.38" y="132.83" fill="#3fb1e0" rx="2" ry="2" />
  <path fill="#006dad" d="M75.63 166.35l-17.54.19s-.81-9.7 8.66-9.81 8.88 9.62 8.88 9.62z" />
  <circle cx="66.66" cy="148.62" r="4.55" fill="#006dad" />
  <path fill="none" stroke="#006dad" stroke-miterlimit="10" stroke-width="2"
    d="M100.31 145.49l.2 18.8m9.3-9.5l-18.8.2m15.98-6.82l-13.15 13.44m13.29-.14l-13.44-13.15m38.56-3.18l.2 18.81m9.3-9.51l-18.8.21m15.98-6.82l-13.15 13.43m13.29-.14l-13.44-13.15" />
  <rect width="117.05" height="45.37" x="41.38" y="234.15" fill="#3fb1e0" rx="2" ry="2" />
  <path fill="#006dad" d="M75.63 267.67l-17.54.19s-.81-9.71 8.66-9.81 8.88 9.62 8.88 9.62z" />
  <circle cx="66.66" cy="249.94" r="4.55" fill="#006dad" />
  <path fill="none" stroke="#006dad" stroke-miterlimit="10" stroke-width="2"
    d="M100.31 246.81l.2 18.8m9.3-9.5l-18.8.2m15.98-6.82l-13.15 13.44m13.29-.15l-13.44-13.15m38.56-3.17l.2 18.8m9.3-9.5l-18.8.21m15.98-6.83l-13.15 13.44m13.29-.14l-13.44-13.15" />
  <rect width="117.05" height="45.37" x="41.38" y="333.84" fill="#3fb1e0" rx="2" ry="2" />
  <path fill="#006dad" d="M75.63 367.36l-17.54.19s-.81-9.7 8.66-9.81 8.88 9.62 8.88 9.62z" />
  <circle cx="66.66" cy="349.63" r="4.55" fill="#006dad" />
  <path fill="none" stroke="#006dad" stroke-miterlimit="10" stroke-width="2"
    d="M100.31 346.5l.2 18.8m9.3-9.5l-18.8.2m15.98-6.82l-13.15 13.44m13.29-.14l-13.44-13.15m38.56-3.18l.2 18.81m9.3-9.51l-18.8.21m15.98-6.82l-13.15 13.43m13.29-.14l-13.44-13.15" />
</svg>