<svg xmlns="http://www.w3.org/2000/svg" viewBox="0 0 424 424" width="424" height="424" aria-hidden="true">
    <defs>
        <linearGradient id="fa-nlm-a" x1="50%" x2="50%" y1="100%" y2="0%">
            <stop offset="0%" stop-color="#FED360" stop-opacity=".5"></stop>
            <stop offset="100%" stop-color="#FED360" stop-opacity="0"></stop>
        </linearGradient>
        <linearGradient id="fa-nlm-b" x1="9.4%" x2="92.9%" y1="53.3%" y2="53.3%">
            <stop offset="0%" stop-color="#003F5E"></stop>
            <stop offset="100%" stop-color="#00546A"></stop>
        </linearGradient>
        <linearGradient id="fa-nlm-c" x1="9.4%" x2="92.9%" y1="53.3%" y2="53.3%">
            <stop offset="0%" stop-color="#003F5E"></stop>
            <stop offset="100%" stop-color="#00546A"></stop>
        </linearGradient>
    </defs>
    <g fill="none" fill-rule="evenodd">
        <path fill="url(#fa-nlm-a)" fill-rule="nonzero"
            d="M188.6 0c48 0 73.2 21.6 103.6 71.1C322.6 120.6 424 138.8 424 227c0 88-70.3 197-195.4 197C12 424 0 286.4 0 227c0-59.7 0-96 63.4-137 40.3-26 57-90.1 125.2-90.1z">
        </path>
        <path fill="#F09F45" fill-rule="nonzero"
            d="M422 104.3H219.7a2.5 2.5 0 0 1-2.5-2.6c1.5-25 23-62.7 58-49.6 0 0 4.5-47.1 61.7-47.1 57 0 58.5 56.7 58.5 56.7s29-1 29 40c0 1.5-1 2.6-2.4 2.6">
        </path>
        <path fill="#FED360" fill-rule="nonzero" d="M.4 372.5V190.3h49.8l17.4 19.3H246v162.9z"></path>
        <g fill-rule="nonzero">
            <path fill="#F09F45" d="M77.4 171.9v65h141v-88h-119z"></path>
            <path fill="#FED360" d="M102.3 171.9H77.4l3-3h19v-20h3z"></path>
        </g>
        <path fill="#FED360" fill-rule="nonzero" d="M246 372.5H.4l36.7-136.2h245.5z"></path>
        <path fill="#F09F45" fill-rule="nonzero" d="M1.9 372.8l-2.9-.7 37-137.3h210v3H38.3z"></path>
        <path fill="#F09F45" fill-rule="nonzero"
            d="M73.7 342.6l36.9-29.9 18.3 14.3 39.3-29.8 23.8 45.2 17.2-63.7H90.6l-17.2 63.9h.3zm120.6 3H69.5l18.8-69.9h124.8l-18.8 69.9zm-115.4-3h109.7l-21.3-41-38.4 29.2-18.3-14.3-31.7 26zm31.6-45.6a6.3 6.3 0 1 0 12.5 0 6.3 6.3 0 0 0-12.5 0zm-3 0a9.3 9.3 0 1 1 18.5 0 9.3 9.3 0 0 1-18.5 0z">
        </path>
        <path fill="#FED360" fill-rule="nonzero"
            d="M324.3 55.6l-2.1 2.1 12.5 12.6-187.8.5v137.3h3V73.7l184.8-.4-12.5 12.4 2.1 2.2 16.1-16.2z"></path>
        <path fill="#FF927C" fill-rule="nonzero"
            d="M299.8 414c7.2 0 16.2-2.2 18-3.2-.7-2.7-1.5-5.8-.7-10.9.5-3.5 2.2-8.5 3.9-14h-12.8a48 48 0 0 1-1.9 15.1c-4.8 8-15.6 10.4-21.5 11.9h-.2c-.7.4 8.2 1 15.2 1">
        </path>
        <path fill="#003F5E" fill-rule="nonzero"
            d="M299 416.9c8 0 19.5 1.4 19.4-2.4a20 20 0 0 0-.7-3.7 69.2 69.2 0 0 1-33.1 2c-2.3.7-3.8 1-4 1.7-1.3 3.7 10.4 2.4 18.4 2.4">
        </path>
        <path fill="#FF927C" fill-rule="nonzero"
            d="M386.6 387.4c-6.6-1.2-7.1 5-6.7 10 .3 5.1-3.3 13.7-6 15l-2.2.9c1.8-1.2 4.3-5.2 4.6-10.2.4-5.6-.9-9.5-3.9-15.7 1.8-1.8 5.7-4.9 10.3-5.5l1.5 3.5c.6 1 1.5 1.3 2.4 2">
        </path>
        <path fill="url(#fa-nlm-b)"
            d="M77.4 0C76 19 65.6 39.2 60.2 51.5c-1 9.7 0 16.3 1.9 20 1.9 3.9 29 55.4 29 55.4l.8-.7a23 23 0 0 1 11.2-5.4c-2.8-7.3-9.2-24-12.6-35.6-4-14.5-7.2-15-9-19.4C79.7 61.4 93 10.5 90 0H77.4z"
            transform="translate(280.5 261.1)"></path>
        <path fill="url(#fa-nlm-c)"
            d="M39 0l-8.1 67.1s0 20-1.1 35c-.8 10.4-3.1 22.6-3.1 22.6h14.8s11.7-30.2 12.9-38.3c1.2-8-.5-15.1-.5-19.1 0-1.5 2.7-7.6 6.3-15.8C65.6 39.2 76 19 77.4 0H38.9z"
            transform="translate(280.5 261.1)"></path>
        <path fill="#003F5E" fill-rule="nonzero"
            d="M386 416.9c-5.5.4-18.6.2-18.6.2.5-2.3 2.3-3 4.3-3.8l2.1-.9c2.8-1.3 6.4-9.9 6-15-.3-5 .2-11.2 6.8-10 1.1.7 2.2 1.8 2.8 4.8.6 2.8 2.3 24.2-3.3 24.7">
        </path>
        <g fill-rule="nonzero">
            <path fill="#FF927C"
                d="M263.5 264.8l-.8-.3c-.7-.5-2.7-2.3-3-3.7l.3-1c-1.4.5-2.6 1-3.3 1.1-2 .6-5.1.4-5.2-.1 0-.6 6.2-3.8 7.2-4.4 1-.5 6-3.2 7.8-3.7 1-.2 8.8-4.4 16-8.5l4 9c-2.6 1.1-4.6 2-5.5 2.2-3 1-6.8 6.4-7.5 7-.7.7-4.8 3-6.2 3.5-1.3.5-4.3 2.3-4.5 1.9-.3-.4 0-1.8.7-3zm2-2a12 12 0 0 0 2.9-2.1c.3-.8-.2-2.6-1.3-2.7-.7 0-1.6.1-2.7.4-.3.6-.6 1.1-.6 1.4.1.7 1 2 1.3 2.6l.5.5z">
            </path>
            <path fill="#00AEA0"
                d="M375.3 251.4l.6 9.7h-56.5l4.2-35c-4.3 7.6-8.3 13.7-9.5 15-3 3-19.4 8.8-27.6 12.2l-4-9.1a258 258 0 0 0 11.9-7 29 29 0 0 0 9.8-8.5c1.3-2 10.9-25.8 17-34.3 3.4-4.9 41.7-4.2 44.8-1.4 3.1 2.7 21.2 28 21.4 33.8.2 4-7.5 17.1-12.1 24.6">
            </path>
            <path fill="#00838C"
                d="M324 226.4l-.8-.5c2.2-3.9 5.4-9.8 8-15.5l1 .4c-2.7 5.8-6 11.7-8.1 15.6m50.7 25c-1.6-19.2-5.3-41-5.3-41.3l1-.2c0 .3 3.7 22.2 5.3 41.5h-1z">
            </path>
        </g>
        <g fill-rule="nonzero">
            <path fill="#FF927C"
                d="M341.9 180.7s-9.7-2-11-4.1c-1.3-2 .4-4 .2-6.3-.1-2.4.5-3.8.5-4.7 0-.8-2.1-1.5-1.7-3 .3-1.4 6-.2 5.8-3.2-.3-3 2.5-9 10.4-9 0 0 3.5 6.5 1.9 15.8a31.9 31.9 0 0 1-6.1 14.5">
            </path>
            <path fill="#003F5E" d="M335.4 161.1a3.4 3.4 0 0 1-1.9-1.8l1-.3s.3.8 1.3 1.2l-.4 1z"></path>
            <path fill="#EF5C8A" d="M332 168.8c-.4 0-.7 0-1-.2l.4-1c0 .1 1.5.5 2.5-.8l.8.6c-.8 1-1.9 1.4-2.7 1.4">
            </path>
            <path fill="#003F5E"
                d="M337 177.3c.6-7.2 7.8-10.4 5.3-14.8-2.6-4.6-7-11.2-1.6-15 7.2-5 21 .7 24.3 8.2 3.2 7.5-.6 8.9.5 12.9 1.2 4 3.6 3 3.8 8.1.3 5.1-2.3 5.4-2 10 .4 4.7 9 8.6 2.6 18.5-8 12.4-35.8 7.3-33-28">
            </path>
        </g>
    </g>
</svg>