<svg width="249" height="47" viewBox="0 0 249 47" fill="none" xmlns="http://www.w3.org/2000/svg">
    <path
        d="M0.53125 46V42.0625L5.625 41.1875V5.34375L0.53125 4.46875V0.5H16.875V4.46875L11.7812 5.34375V41.2812H27.875L28.5938 34.0938H33.3125V46H0.53125ZM51.625 46.6562C47.9583 46.6562 45.0938 45.4792 43.0312 43.125C40.9688 40.7708 39.9375 37.1042 39.9375 32.125V17.0312L36.0625 16.1562V12.1875H46.0938V32.1875C46.0938 35.7917 46.625 38.2708 47.6875 39.625C48.75 40.9792 50.4062 41.6562 52.6562 41.6562C54.8438 41.6562 56.6458 41.2188 58.0625 40.3438C59.5 39.4479 60.5833 38.1875 61.3125 36.5625V17.0312L56.7812 16.1562V12.1875H67.4688V41.1875L71.3438 42.0625V46H61.9375L61.5312 41C60.4688 42.8125 59.0938 44.2083 57.4062 45.1875C55.7396 46.1667 53.8125 46.6562 51.625 46.6562ZM75.6875 46V42.0625L80.7812 41.1875V17.0312L75.6875 16.1562V12.1875H86.2812L86.7188 17.2188C87.8438 15.4271 89.25 14.0417 90.9375 13.0625C92.6458 12.0625 94.5833 11.5625 96.75 11.5625C100.396 11.5625 103.219 12.6354 105.219 14.7812C107.219 16.9062 108.219 20.1979 108.219 24.6562V41.1875L113.312 42.0625V46H96.9688V42.0625L102.062 41.1875V24.7812C102.062 21.8021 101.469 19.6875 100.281 18.4375C99.1146 17.1875 97.3229 16.5625 94.9062 16.5625C93.1354 16.5625 91.5625 16.9896 90.1875 17.8438C88.8333 18.6979 87.75 19.8646 86.9375 21.3438V41.1875L92.0312 42.0625V46H75.6875ZM128.625 46.6562C125.104 46.6562 122.427 45.8021 120.594 44.0938C118.76 42.3646 117.844 39.9375 117.844 36.8125C117.844 33.6042 119.156 31.0312 121.781 29.0938C124.406 27.1354 128.052 26.1562 132.719 26.1562H138.75V22.8438C138.75 20.8021 138.125 19.2188 136.875 18.0938C135.646 16.9688 133.906 16.4062 131.656 16.4062C130.24 16.4062 129.01 16.5833 127.969 16.9375C126.927 17.2708 125.979 17.7396 125.125 18.3438L124.469 23.0625H119.719V15.3125C122.781 12.8125 126.792 11.5625 131.75 11.5625C135.854 11.5625 139.073 12.5417 141.406 14.5C143.74 16.4583 144.906 19.2604 144.906 22.9062V39.1875C144.906 39.625 144.906 40.0521 144.906 40.4688C144.927 40.8854 144.958 41.3021 145 41.7188L148.281 42.0625V46H139.438C139.083 44.2917 138.865 42.7396 138.781 41.3438C137.594 42.8646 136.104 44.1354 134.312 45.1562C132.542 46.1562 130.646 46.6562 128.625 46.6562ZM129.531 41.5C131.573 41.5 133.438 41.0104 135.125 40.0312C136.812 39.0521 138.021 37.875 138.75 36.5V30.375H132.5C129.667 30.375 127.542 31.0521 126.125 32.4062C124.708 33.7604 124 35.2708 124 36.9375C124 39.9792 125.844 41.5 129.531 41.5ZM181.375 46V42.0625L186.469 41.1875V29.4375L172.469 5.0625L168.719 4.46875V0.5H184.406V4.46875L179.219 5.0625L188.875 22.9375L189.531 24.1562L189.562 24.0938L190.188 22.9375L200.312 5.0625L194.938 4.46875V0.5H210.312V4.46875L206.344 5.0625L192.594 28.9688V41.1875L197.688 42.0625V46H181.375ZM228.312 46.6562C224.646 46.6562 221.781 45.4792 219.719 43.125C217.656 40.7708 216.625 37.1042 216.625 32.125V17.0312L212.75 16.1562V12.1875H222.781V32.1875C222.781 35.7917 223.312 38.2708 224.375 39.625C225.438 40.9792 227.094 41.6562 229.344 41.6562C231.531 41.6562 233.333 41.2188 234.75 40.3438C236.188 39.4479 237.271 38.1875 238 36.5625V17.0312L233.469 16.1562V12.1875H244.156V41.1875L248.031 42.0625V46H238.625L238.219 41C237.156 42.8125 235.781 44.2083 234.094 45.1875C232.427 46.1667 230.5 46.6562 228.312 46.6562Z"
        fill="black" />
</svg>